HIERARCHY
ROOT hip
{
  OFFSET 0 0 0
  CHANNELS 6 Xposition Yposition Zposition Zrotation Yrotation Xrotation
  JOINT abdomen
  {
    OFFSET 0 20.6881 -0.73152
    CHANNELS 3 Zrotation Xrotation Yrotation
    JOINT chest
    {
      OFFSET 0 11.7043 -0.48768
      CHANNELS 3 Zrotation Xrotation Yrotation
      JOINT neck
      {
        OFFSET 0 22.1894 -2.19456
        CHANNELS 3 Zrotation Xrotation Yrotation
        JOINT head
        {
          OFFSET -0.24384 7.07133 1.2192
          CHANNELS 3 Zrotation Xrotation Yrotation
          JOINT leftEye
          {
            OFFSET 4.14528 8.04674 8.04672
            CHANNELS 3 Zrotation Xrotation Yrotation
            End Site
            {
              OFFSET 1 0 0
            }
          }
          JOINT rightEye
          {
            OFFSET -3.6576 8.04674 8.04672
            CHANNELS 3 Zrotation Xrotation Yrotation
            End Site
            {
              OFFSET 1 0 0
            }
          }
        }
      }
      JOINT rCollar
      {
        OFFSET -2.68224 19.2634 -4.8768
        CHANNELS 3 Zrotation Xrotation Yrotation
        JOINT rShldr
        {
          OFFSET -8.77824 -1.95073 1.46304
          CHANNELS 3 Zrotation Xrotation Yrotation
          JOINT rForeArm
          {
            OFFSET -28.1742 -1.7115 0.48768
            CHANNELS 3 Zrotation Xrotation Yrotation
            JOINT rHand
            {
              OFFSET -22.5879 0.773209 7.07136
              CHANNELS 3 Zrotation Xrotation Yrotation
              JOINT rThumb1
              {
                OFFSET -1.2192 -0.487915 3.41376
                CHANNELS 3 Zrotation Xrotation Yrotation
                JOINT rThumb2
                {
                  OFFSET -3.37035 -0.52449 3.41376
                  CHANNELS 3 Zrotation Xrotation Yrotation
                  End Site
                  {
                    OFFSET -1.78271 -1.18214 1.43049
                  }
                }
              }
              JOINT rIndex1
              {
                OFFSET -7.75947 0.938293 5.60832
                CHANNELS 3 Zrotation Xrotation Yrotation
                JOINT rIndex2
                {
                  OFFSET -2.54057 -0.884171 1.56538
                  CHANNELS 3 Zrotation Xrotation Yrotation
                  End Site
                  {
                    OFFSET -1.62519 -0.234802 1.16502
                  }
                }
              }
              JOINT rMid1
              {
                OFFSET -8.24714 1.18213 3.41376
                CHANNELS 3 Zrotation Xrotation Yrotation
                JOINT rMid2
                {
                  OFFSET -3.10165 -0.590103 1.0647
                  CHANNELS 3 Zrotation Xrotation Yrotation
                  End Site
                  {
                    OFFSET -2.48547 -0.328903 0.83742
                  }
                }
              }
              JOINT rRing1
              {
                OFFSET -8.82822 0.546677 1.51678
                CHANNELS 3 Zrotation Xrotation Yrotation
                JOINT rRing2
                {
                  OFFSET -2.60934 -0.819778 -0.0198488
                  CHANNELS 3 Zrotation Xrotation Yrotation
                  End Site
                  {
                    OFFSET -2.33842 -0.294052 0.168128
                  }
                }
              }
              JOINT rPinky1
              {
                OFFSET -8.27202 -0.0477905 -0.4584
                CHANNELS 3 Zrotation Xrotation Yrotation
                JOINT rPinky2
                {
                  OFFSET -1.82734 -0.647385 -0.700984
                  CHANNELS 3 Zrotation Xrotation Yrotation
                  End Site
                  {
                    OFFSET -1.69225 -0.51767 -0.607171
                  }
                }
              }
            }
          }
        }
      }
      JOINT lCollar
      {
        OFFSET 2.68224 19.2634 -4.8768
        CHANNELS 3 Zrotation Xrotation Yrotation
        JOINT lShldr
        {
          OFFSET 8.77824 -1.95073 1.46304
          CHANNELS 3 Zrotation Xrotation Yrotation
          JOINT lForeArm
          {
            OFFSET 28.1742 -1.7115 0.48768
            CHANNELS 3 Zrotation Xrotation Yrotation
            JOINT lHand
            {
              OFFSET 22.5879 0.773209 7.07136
              CHANNELS 3 Zrotation Xrotation Yrotation
              JOINT lThumb1
              {
                OFFSET 1.2192 -0.487915 3.41376
                CHANNELS 3 Zrotation Xrotation Yrotation
                JOINT lThumb2
                {
                  OFFSET 3.37035 -0.52449 3.41376
                  CHANNELS 3 Zrotation Xrotation Yrotation
                  End Site
                  {
                    OFFSET 1.78271 -1.18214 1.43049
                  }
                }
              }
              JOINT lIndex1
              {
                OFFSET 7.75947 0.938293 5.60832
                CHANNELS 3 Zrotation Xrotation Yrotation
                JOINT lIndex2
                {
                  OFFSET 2.54057 -0.884171 1.56538
                  CHANNELS 3 Zrotation Xrotation Yrotation
                  End Site
                  {
                    OFFSET 1.62519 -0.234802 1.16502
                  }
                }
              }
              JOINT lMid1
              {
                OFFSET 8.24714 1.18213 3.41376
                CHANNELS 3 Zrotation Xrotation Yrotation
                JOINT lMid2
                {
                  OFFSET 3.10165 -0.590103 1.0647
                  CHANNELS 3 Zrotation Xrotation Yrotation
                  End Site
                  {
                    OFFSET 2.48547 -0.328903 0.83742
                  }
                }
              }
              JOINT lRing1
              {
                OFFSET 8.82822 0.546677 1.51678
                CHANNELS 3 Zrotation Xrotation Yrotation
                JOINT lRing2
                {
                  OFFSET 2.60934 -0.819778 -0.0198488
                  CHANNELS 3 Zrotation Xrotation Yrotation
                  End Site
                  {
                    OFFSET 2.33842 -0.294052 0.168128
                  }
                }
              }
              JOINT lPinky1
              {
                OFFSET 8.27202 -0.0477905 -0.4584
                CHANNELS 3 Zrotation Xrotation Yrotation
                JOINT lPinky2
                {
                  OFFSET 1.82734 -0.647385 -0.700984
                  CHANNELS 3 Zrotation Xrotation Yrotation
                  End Site
                  {
                    OFFSET 1.69225 -0.51767 -0.607171
                  }
                }
              }
            }
          }
        }
      }
    }
  }
  JOINT rButtock
  {
    OFFSET -8.77824 4.35084 1.2192
    CHANNELS 3 Zrotation Xrotation Yrotation
    JOINT rThigh
    {
      OFFSET 0 -1.70687 -2.19456
      CHANNELS 3 Zrotation Xrotation Yrotation
      JOINT rShin
      {
        OFFSET 0 -36.8199 0.73152
        CHANNELS 3 Zrotation Xrotation Yrotation
        JOINT rFoot
        {
          OFFSET 0.73152 -45.1104 -5.12064
          CHANNELS 3 Zrotation Xrotation Yrotation
          End Site
          {
            OFFSET -1.1221 -3.69964 12.103
          }
        }
      }
    }
  }
  JOINT lButtock
  {
    OFFSET 8.77824 4.35084 1.2192
    CHANNELS 3 Zrotation Xrotation Yrotation
    JOINT lThigh
    {
      OFFSET 0 -1.70687 -2.19456
      CHANNELS 3 Zrotation Xrotation Yrotation
      JOINT lShin
      {
        OFFSET 0 -36.8199 0.73152
        CHANNELS 3 Zrotation Xrotation Yrotation
        JOINT lFoot
        {
          OFFSET -0.73152 -45.1104 -5.12064
          CHANNELS 3 Zrotation Xrotation Yrotation
          End Site
          {
            OFFSET 1.1221 -3.69964 12.103
          }
        }
      }
    }
  }
}
MOTION
Frames:	5
Frame Time:	0.00833333
44.8885 63.0293 78.0881 2.9203 -8.2981 14.1676 -1.90188 17.5991 -9.8942 5.78916 -0.568817 -2.89516 -1.58002 7.78461 4.56728 2.32037 -21.3929 9.74721 -0.0 0.0 0.0 -0.0 0.0 0.0 1.08287e-13 2.76726e-13 -9.20373e-14 50.3578 -6.84347 -33.0072 -11.6242 -5.1886 20.8849 -0.00859945 -2.64677 -0.372247 -6.14926e-10 8.04962e-10 -7.4515e-10 -1.06453e-09 1.39193e-09 -1.28795e-09 -6.14921e-10 8.04968e-10 -7.45175e-10 7.73091 5.47488 0.417314 -6.14927e-10 8.04961e-10 -7.4515e-10 2.90554 0.965183 0.102902 -6.14928e-10 8.04954e-10 -7.45151e-10 10.2786 0.731801 0.0259123 -6.14933e-10 8.04963e-10 -7.45134e-10 2.22167 -0.733487 -0.20892 1.07998e-13 2.76689e-13 -9.23852e-14 -49.2429 40.933 -36.466 18.0954 -10.7896 -34.2345 0.320117 -15.8918 2.29316 -7.42024e-12 -1.16753e-09 -4.54479e-10 3.29585e-13 -2.01449e-09 -7.89251e-10 -7.43653e-12 -1.16753e-09 -4.54463e-10 -7.73091 5.47488 -0.417314 -7.41949e-12 -1.16753e-09 -4.54476e-10 -2.90554 0.965183 -0.102902 -7.4255e-12 -1.16753e-09 -4.54481e-10 -10.2786 0.731801 -0.0259123 -7.41029e-12 -1.16753e-09 -4.54489e-10 -2.22167 -0.733487 0.20892 -2.03217e-16 0.0 -3.88251e-19 -73.0085 -78.4563 -76.466 -11.7482 85.4636 12.7024 1.36885 -8.58512 3.71405 2.03217e-16 0.0 3.88251e-19 76.5765 -50.785 72.7933 4.5055 79.181 -5.13725 -3.03912 -0.965443 -18.0338
45.6001 59.8268 78.227 3.1508 -9.1031 14.1294 -1.75511 17.9988 -10.2181 5.77229 -0.73609 -2.9629 -1.57023 7.84586 4.91815 2.04969 -22.1423 10.4216 -0.0 0.0 0.0 -0.0 0.0 0.0 1.19642e-13 2.77863e-13 -4.00435e-14 50.0365 -8.58862 -32.7402 -11.4833 -5.09283 20.6141 -0.0140551 -3.07563 -0.43298 -3.17999e-10 7.54656e-10 -2.34069e-10 -5.51818e-10 1.30154e-09 -4.03664e-10 -3.17995e-10 7.54661e-10 -2.34095e-10 7.73091 5.47488 0.417314 -3.18001e-10 7.54655e-10 -2.34072e-10 2.90554 0.965183 0.102902 -3.18001e-10 7.54651e-10 -2.3407e-10 10.2786 0.731801 0.0259123 -3.18005e-10 7.54658e-10 -2.34054e-10 2.22167 -0.733487 -0.20892 1.19405e-13 2.77838e-13 -4.03715e-14 -53.0547 39.8943 -33.9617 17.1179 -9.75697 -32.1255 0.312187 -15.6508 2.25719 -5.49423e-10 -1.26616e-09 -5.3423e-10 -9.37349e-10 -2.18801e-09 -9.32438e-10 -5.49439e-10 -1.26615e-09 -5.34212e-10 -7.73091 5.47488 -0.417314 -5.49426e-10 -1.26616e-09 -5.34229e-10 -2.90554 0.965183 -0.102902 -5.49428e-10 -1.26616e-09 -5.3423e-10 -10.2786 0.731801 -0.0259123 -5.49413e-10 -1.26616e-09 -5.34237e-10 -2.22167 -0.733487 0.20892 -2.03217e-16 0.0 -3.88251e-19 -94.3529 -78.5467 -97.7467 -115.29 88.8787 116.264 1.64869 -9.85973 4.04109 2.03217e-16 0.0 3.88251e-19 82.5121 -49.9645 78.7565 9.46972 84.3148 -10.1421 -3.78276 -3.466 -17.1581
46.187 56.9142 78.2224 3.079 -9.7803 14.2137 -1.23817 18.195 -10.6472 5.69629 -0.88222 -3.0452 -1.67154 7.87305 5.27473 1.84935 -22.99 11.147 -0.0 0.0 0.0 -0.0 0.0 0.0 1.43402e-13 2.67564e-13 3.37499e-14 49.7513 -10.3617 -32.3104 -11.2896 -4.96155 20.2452 -0.0206224 -3.42412 -0.482632 1.98245e-10 6.79622e-10 5.83612e-10 3.4016e-10 1.16732e-09 1.01099e-09 1.98248e-10 6.79624e-10 5.83586e-10 7.73091 5.47488 0.417314 1.98242e-10 6.7962e-10 5.83605e-10 2.90554 0.965183 0.102902 1.98244e-10 6.7962e-10 5.83609e-10 10.2786 0.731801 0.0259123 1.9824e-10 6.79624e-10 5.83624e-10 2.22167 -0.733487 -0.20892 1.43255e-13 2.67563e-13 3.34673e-14 -57.237 38.2256 -31.2632 16.184 -8.85757 -30.09 0.309631 -15.5279 2.23936 -1.37871e-09 -1.34297e-09 -6.23207e-10 -2.3729e-09 -2.32595e-09 -1.09408e-09 -1.37872e-09 -1.34298e-09 -6.23187e-10 -7.73091 5.47488 -0.417314 -1.37871e-09 -1.34298e-09 -6.2321e-10 -2.90554 0.965183 -0.102902 -1.37871e-09 -1.34298e-09 -6.23202e-10 -10.2786 0.731801 -0.0259123 -1.3787e-09 -1.34298e-09 -6.23209e-10 -2.22167 -0.733487 0.20892 -2.03217e-16 0.0 -3.88251e-19 -115.31 -77.2867 -118.5 -168.454 84.4766 169.443 1.97477 -10.9201 4.5006 2.03217e-16 0.0 3.88251e-19 88.7928 -48.6812 85.0218 83.1626 88.9623 -83.875 -4.35223 -7.18499 -14.7476
46.6975 53.5134 78.4057 2.6531 -10.515 14.1424 -0.677495 18.5619 -11.117 5.65825 -1.06135 -3.13499 -1.8168 7.93642 5.62228 1.673 -23.9474 11.8666 -0.0 0.0 0.0 -0.0 0.0 0.0 1.63484e-13 2.49115e-13 1.0267e-13 49.6518 -12.0424 -31.8153 -11.1475 -4.86616 19.9756 -0.0258385 -3.96929 -0.559647 6.94735e-10 5.9813e-10 1.34701e-09 1.19835e-09 1.02306e-09 2.3316e-09 6.94737e-10 5.9813e-10 1.34699e-09 7.73091 5.47488 0.417314 6.94731e-10 5.98128e-10 1.347e-09 2.90554 0.965183 0.102902 6.94736e-10 5.98132e-10 1.34701e-09 10.2786 0.731801 0.0259123 6.94731e-10 5.98134e-10 1.34702e-09 2.22167 -0.733487 -0.20892 1.63428e-13 2.49138e-13 1.02437e-13 -61.0142 36.0721 -28.8793 15.2962 -8.05891 -28.1851 0.316158 -15.6869 2.26349 -2.14632e-09 -1.35035e-09 -6.65743e-10 -3.70247e-09 -2.34385e-09 -1.17488e-09 -2.14633e-09 -1.35036e-09 -6.65722e-10 -7.73091 5.47488 -0.417314 -2.14634e-09 -1.35037e-09 -6.6575e-10 -2.90554 0.965183 -0.102902 -2.14633e-09 -1.35036e-09 -6.65734e-10 -10.2786 0.731801 -0.0259123 -2.14631e-09 -1.35036e-09 -6.65741e-10 -2.22167 -0.733487 0.20892 -2.03217e-16 0.0 -3.88251e-19 -131.174 -74.7532 -134.022 -173.369 79.6367 174.371 2.32518 -11.6764 4.99469 2.03217e-16 0.0 3.88251e-19 94.7753 -46.6534 90.7269 168.293 84.4223 -169.044 -4.61781 -11.0819 -12.1937
47.1328 50.0754 78.6545 1.934 -11.2921 13.6843 -0.388628 19.4726 -11.5689 5.75502 -1.32762 -3.22526 -1.94054 8.10614 5.94632 1.47076 -25.0275 12.5228 -0.0 0.0 0.0 -0.0 0.0 0.0 1.63806e-13 2.25801e-13 1.40044e-13 49.872 -13.5001 -31.3463 -11.1638 -4.87923 20.0027 -0.0306139 -4.98815 -0.702833 9.324e-10 5.28453e-10 1.69525e-09 1.60968e-09 9.02527e-10 2.93374e-09 9.32402e-10 5.28452e-10 1.69523e-09 7.73091 5.47488 0.417314 9.32396e-10 5.28451e-10 1.69524e-09 2.90554 0.965183 0.102902 9.32401e-10 5.28457e-10 1.69524e-09 10.2786 0.731801 0.0259123 9.32397e-10 5.28457e-10 1.69525e-09 2.22167 -0.733487 -0.20892 1.63802e-13 2.25838e-13 1.39845e-13 -63.7452 33.6519 -27.2263 14.4536 -7.32632 -26.4713 0.336977 -16.2911 2.35399 -2.50333e-09 -1.24066e-09 -6.06172e-10 -4.32218e-09 -2.15726e-09 -1.07554e-09 -2.50333e-09 -1.24067e-09 -6.06153e-10 -7.73091 5.47488 -0.417314 -2.50334e-09 -1.24068e-09 -6.06182e-10 -2.90554 0.965183 -0.102902 -2.50333e-09 -1.24067e-09 -6.06163e-10 -10.2786 0.731801 -0.0259123 -2.50332e-09 -1.24067e-09 -6.06169e-10 -2.22167 -0.733487 0.20892 -2.03217e-16 0.0 -3.88251e-19 -141.175 -71.5276 -143.504 -175.117 74.8821 176.135 2.66779 -12.0403 5.42317 2.03217e-16 0.0 3.88251e-19 99.8861 -43.8517 95.0907 173.56 78.9879 -174.346 -4.94988 -14.009 -10.8751
